# This file uses feet as units for non-parametric coordinates.
# UVs by headus UVLayout v2.08.05 2014/11/17 09:42:08

mtllib Box_1.mtl
g default
v -360.692287 55.591336 185.553271
v -409.825187 55.591336 181.505999
v -360.692287 104.091606 185.553271
v -409.825187 104.091606 181.505999
v -367.638005 104.091606 269.872601
v -416.770905 104.091606 265.825329
v -367.638005 55.591336 269.872601
v -416.770905 55.591336 265.825329
# 14 texture coords
vt 0.256872 0.681247
vt 0.009952 0.681327
vt 0.009804 0.257634
vt 0.256657 0.257552
vt 0.499455 0.257397
vt 0.499870 0.681095
vt 0.746234 0.257115
vt 0.746834 0.680808
vt 0.989091 0.256700
vt 0.989751 0.680385
vt 0.747312 0.927713
vt 0.990196 0.927258
vt 0.988662 0.009804
vt 0.745775 0.010240
vn 0.082096 0.000000 -0.996624
vn 0.082096 0.000000 -0.996624
vn 0.082096 0.000000 -0.996624
vn 0.082096 0.000000 -0.996624
vn 0.000000 1.000000 -0.000000
vn 0.000000 1.000000 -0.000000
vn 0.000000 1.000000 -0.000000
vn 0.000000 1.000000 -0.000000
vn -0.082096 0.000000 0.996624
vn -0.082096 0.000000 0.996624
vn -0.082096 0.000000 0.996624
vn -0.082096 0.000000 0.996624
vn 0.000000 -1.000000 0.000000
vn 0.000000 -1.000000 0.000000
vn 0.000000 -1.000000 0.000000
vn 0.000000 -1.000000 0.000000
vn -0.996624 0.000000 -0.082096
vn -0.996624 0.000000 -0.082096
vn -0.996624 0.000000 -0.082096
vn -0.996624 0.000000 -0.082096
vn 0.996624 0.000000 0.082096
vn 0.996624 0.000000 0.082096
vn 0.996624 0.000000 0.082096
vn 0.996624 0.000000 0.082096
s off
g Box
usemtl lambert2SG
f 1/13/1 2/9/2 4/7/3 3/14/4
f 3/5/5 4/7/6 6/8/7 5/6/8
f 5/11/9 6/8/10 8/10/11 7/12/12
f 7/1/13 8/2/14 2/3/15 1/4/16
f 2/9/17 8/10/18 6/8/19 4/7/20
f 7/1/21 1/4/22 3/5/23 5/6/24
