# This file uses feet as units for non-parametric coordinates.
# UVs by headus UVLayout v2.08.06 2015/02/12 09:26:29

mtllib Store_Shelf_S_1.mtl
g default
v 394.174396 -0.113159 -506.278965
v 394.174396 -0.113159 -320.155735
v 394.174396 239.682754 -506.278965
v 394.174396 239.682754 -320.155735
v 417.967790 239.682754 -506.278965
v 417.967790 239.682754 -320.155735
v 417.967790 -0.113159 -506.278965
v 417.967790 -0.113159 -320.155735
v 410.663760 205.967247 -506.278965
v 418.792880 205.967247 -506.278965
v 418.792880 205.967247 -320.155735
v 410.663760 205.967247 -320.155735
v 394.174396 202.937340 -506.278965
v 417.967790 202.937340 -506.278965
v 417.967790 202.937340 -320.155735
v 394.174396 202.937340 -320.155735
v 407.545287 139.177372 -506.278965
v 419.492178 139.177372 -506.278965
v 419.492178 139.177372 -320.155735
v 407.545287 139.177372 -320.155735
v 394.174395 135.622678 -506.278965
v 417.967791 135.622678 -506.278965
v 417.967791 135.622678 -320.155735
v 394.174395 135.622678 -320.155735
v 409.553249 72.469143 -506.278965
v 421.272913 72.469143 -506.278965
v 421.272913 72.469143 -320.155735
v 409.553249 72.469143 -320.155735
v 394.174395 66.472519 -506.278965
v 417.967791 66.472519 -506.278965
v 417.967791 66.472519 -320.155735
v 394.174395 66.472519 -320.155735
v 406.399357 12.908058 -506.278965
v 420.516831 12.908058 -506.278965
v 420.516831 12.908058 -320.155735
v 406.399357 12.908058 -320.155735
v 394.174396 6.755379 -506.278965
v 417.967790 6.755379 -506.278965
v 417.967790 6.755379 -320.155735
v 394.174396 6.755379 -320.155735
# 84 texture coords
vt 0.322974 0.868495
vt 0.322971 0.880191
vt 0.005178 0.880129
vt 0.005181 0.868444
vt 0.322990 0.760513
vt 0.005197 0.760472
vt 0.322951 0.971758
vt 0.005158 0.971684
vt 0.322992 0.753909
vt 0.005199 0.753871
vt 0.322948 0.983126
vt 0.005155 0.983058
vt 0.323006 0.645015
vt 0.005213 0.644974
vt 0.322946 0.994847
vt 0.005153 0.994793
vt 0.323007 0.639652
vt 0.005214 0.639617
vt 0.323013 0.582071
vt 0.005220 0.582034
vt 0.323019 0.541450
vt 0.005226 0.541409
vt 0.323027 0.477370
vt 0.005234 0.477329
vt 0.323031 0.448745
vt 0.005238 0.448705
vt 0.323043 0.337509
vt 0.005250 0.337478
vt 0.323046 0.313888
vt 0.005253 0.313856
vt 0.323059 0.202911
vt 0.005266 0.202873
vt 0.323062 0.174732
vt 0.005269 0.174686
vt 0.323077 0.080926
vt 0.005284 0.080874
vt 0.323081 0.057559
vt 0.005288 0.057506
vt 0.323083 0.045831
vt 0.005290 0.045779
vt 0.005296 0.005153
vt 0.323089 0.005206
vt 0.492355 0.446093
vt 0.478475 0.446093
vt 0.479884 0.388527
vt 0.520509 0.388526
vt 0.468181 0.151089
vt 0.466228 0.042220
vt 0.506818 0.040520
vt 0.488562 0.150257
vt 0.471021 0.157032
vt 0.511615 0.155434
vt 0.464604 0.037111
vt 0.478472 0.036530
vt 0.469572 0.264970
vt 0.489569 0.264236
vt 0.475564 0.274972
vt 0.516167 0.273597
vt 0.474244 0.366509
vt 0.498335 0.365714
vt 0.478939 0.376863
vt 0.519543 0.375529
vt 0.519927 0.387252
vt 0.479324 0.388583
vt 0.494873 0.772818
vt 0.468798 0.664906
vt 0.509424 0.665006
vt 0.514884 0.772810
vt 0.468641 0.783155
vt 0.509267 0.783028
vt 0.491646 0.658877
vt 0.512045 0.658978
vt 0.489863 0.874549
vt 0.513968 0.874454
vt 0.469539 0.549840
vt 0.510163 0.550118
vt 0.469033 0.885140
vt 0.509658 0.884974
vt 0.497729 0.544852
vt 0.511608 0.544968
vt 0.509707 0.896700
vt 0.469082 0.896869
vt 0.470129 0.487009
vt 0.510753 0.487399
vn -1.000000 0.000000 0.000000
vn -1.000000 0.000000 0.000000
vn -0.729046 0.684465 0.000000
vn -0.729046 0.684465 0.000000
vn 0.000000 1.000000 0.000000
vn 0.000000 1.000000 0.000000
vn 0.000000 1.000000 0.000000
vn 0.000000 1.000000 0.000000
vn 0.981373 -0.192114 -0.000000
vn 0.981373 -0.192114 -0.000000
vn 1.000000 0.000000 -0.000000
vn 1.000000 0.000000 -0.000000
vn 0.000000 -1.000000 0.000000
vn 0.000000 -1.000000 0.000000
vn 0.000000 -1.000000 0.000000
vn 0.000000 -1.000000 0.000000
vn 0.000000 0.000000 1.000000
vn 0.000000 0.000000 1.000000
vn 0.000000 0.000000 1.000000
vn 0.000000 0.000000 1.000000
vn -0.000000 0.000000 -1.000000
vn -0.000000 0.000000 -1.000000
vn -0.000000 0.000000 -1.000000
vn -0.000000 0.000000 -1.000000
vn -0.000000 -0.000000 -1.000000
vn -0.000000 0.000000 -1.000000
vn -0.000000 -0.000000 -1.000000
vn -0.000000 -0.000000 -1.000000
vn 0.999701 0.024465 -0.000000
vn 0.999701 0.024465 -0.000000
vn 1.000000 0.000000 -0.000000
vn 1.000000 0.000000 -0.000000
vn 0.000000 0.000000 1.000000
vn 0.000000 0.000000 1.000000
vn 0.000000 0.000000 1.000000
vn 0.000000 0.000000 1.000000
vn -1.000000 0.000000 0.000000
vn -1.000000 0.000000 0.000000
vn -0.898319 -0.439344 0.000000
vn -0.898319 -0.439344 0.000000
vn -0.000000 0.000000 -1.000000
vn -0.000000 0.000000 -1.000000
vn 0.999945 0.010470 -0.000000
vn 0.999945 0.010470 -0.000000
vn 0.000000 0.000000 1.000000
vn 0.000000 0.000000 1.000000
vn -0.998912 0.046640 0.000000
vn -0.998912 0.046640 0.000000
vn -0.000000 0.000000 -1.000000
vn -0.000000 0.000000 -1.000000
vn 1.000000 0.000000 -0.000000
vn 1.000000 0.000000 -0.000000
vn 0.000000 0.000000 1.000000
vn 0.000000 0.000000 1.000000
vn -1.000000 0.000000 0.000000
vn -1.000000 0.000000 0.000000
vn -0.000000 0.000000 -1.000000
vn -0.000000 0.000000 -1.000000
vn 0.999644 0.026685 -0.000000
vn 0.999644 0.026685 -0.000000
vn 0.000000 -0.000000 1.000000
vn 0.000000 0.000000 1.000000
vn -0.999547 -0.030087 0.000000
vn -0.999547 -0.030087 0.000000
vn -0.000000 0.000000 -1.000000
vn -0.000000 0.000000 -1.000000
vn 1.000000 0.000000 -0.000000
vn 1.000000 0.000000 -0.000000
vn 0.000000 0.000000 1.000000
vn 0.000000 -0.000000 1.000000
vn -1.000000 0.000000 0.000000
vn -1.000000 0.000000 0.000000
vn -0.000000 0.000000 -1.000000
vn -0.000000 -0.000000 -1.000000
vn 0.999920 -0.012693 -0.000000
vn 0.999920 -0.012693 -0.000000
vn 0.000000 -0.000000 1.000000
vn 0.000000 -0.000000 1.000000
vn -0.998601 0.052878 0.000000
vn -0.998601 0.052878 0.000000
vn -0.000000 -0.000000 -1.000000
vn -0.000000 -0.000000 -1.000000
vn 1.000000 -0.000000 -0.000000
vn 1.000000 -0.000000 -0.000000
vn 0.000000 -0.000000 1.000000
vn 0.000000 -0.000000 1.000000
vn -1.000000 0.000000 0.000000
vn -1.000000 0.000000 0.000000
s 1
g Shelf_S
usemtl lambert2SG
f 1/40/1 2/39/2 40/37/3 37/38/4
s off
f 3/22/5 4/21/6 6/19/7 5/20/8
s 2
f 38/12/9 39/11/10 8/15/11 7/16/12
s off
f 7/41/13 8/42/14 2/39/15 1/40/16
s 3
f 2/63/17 8/64/18 39/61/19 40/62/20
s 4
f 7/81/21 1/82/22 37/77/23 38/78/24
f 10/80/25 9/79/26 3/83/27 5/84/28
s 2
f 5/20/29 6/19/30 11/17/31 10/18/32
s 3
f 12/43/33 11/44/34 6/45/35 4/46/36
s 1
f 9/24/37 12/23/38 4/21/39 3/22/40
s 4
f 14/76/41 13/75/42 9/79/26 10/80/25
s 2
f 10/18/32 11/17/31 15/13/43 14/14/44
s 3
f 16/49/45 15/48/46 11/53/34 12/54/33
s 1
f 13/26/47 16/25/48 12/23/38 9/24/37
s 4
f 18/72/49 17/71/50 13/75/42 14/76/41
s 2
f 14/14/44 15/13/43 19/9/51 18/10/52
s 3
f 20/50/53 19/47/54 15/48/46 16/49/45
s 1
f 17/28/55 20/27/56 16/25/48 13/26/47
s 4
f 22/67/57 21/66/58 17/71/50 18/72/49
s 2
f 18/10/52 19/9/51 23/5/59 22/6/60
s 3
f 24/52/61 23/51/62 19/47/54 20/50/53
s 1
f 21/30/63 24/29/64 20/27/56 17/28/55
s 4
f 26/68/65 25/65/66 21/66/58 22/67/57
s 2
f 22/6/60 23/5/59 27/1/67 26/4/68
s 3
f 28/56/69 27/55/70 23/51/62 24/52/61
s 1
f 25/32/71 28/31/72 24/29/64 21/30/63
s 4
f 30/70/73 29/69/74 25/65/66 26/68/65
s 2
f 26/4/68 27/1/67 31/2/75 30/3/76
s 3
f 32/58/77 31/57/78 27/55/70 28/56/69
s 1
f 29/34/79 32/33/80 28/31/72 25/32/71
s 4
f 34/74/81 33/73/82 29/69/74 30/70/73
s 2
f 30/3/76 31/2/75 35/7/83 34/8/84
s 3
f 36/60/85 35/59/86 31/57/78 32/58/77
s 1
f 33/36/87 36/35/88 32/33/80 29/34/79
s 4
f 38/78/24 37/77/23 33/73/82 34/74/81
s 2
f 34/8/84 35/7/83 39/11/10 38/12/9
s 3
f 40/62/20 39/61/19 35/59/86 36/60/85
s 1
f 37/38/4 40/37/3 36/35/88 33/36/87
