# This file uses feet as units for non-parametric coordinates.
# UVs by headus UVLayout v2.08.06 2015/02/12 09:26:29

mtllib Store_Shelf_S_1.mtl
g default
v 302.690803 -0.232558 -126.360792
v 302.690803 -0.232558 -187.320791
v 302.690803 148.691011 -126.360792
v 302.690803 148.691011 -187.320791
v 117.898353 148.691011 -126.360792
v 117.898353 148.691011 -187.320791
v 117.898353 -0.232558 -126.360792
v 117.898353 -0.232558 -187.320791
v 117.898353 143.808092 -187.320789
v 117.898353 143.808092 -126.360794
v 302.690803 143.808092 -126.360792
v 302.690803 143.808092 -187.320791
v 117.898353 142.284090 -161.417703
v 117.898353 142.284090 -152.263879
v 302.690803 142.284090 -152.263879
v 302.690803 142.284090 -161.417703
v 117.898353 27.348436 -187.320791
v 117.898353 27.348436 -126.360792
v 302.690803 27.348436 -126.360792
v 302.690803 27.348436 -187.320791
v 117.898353 28.314058 -180.539840
v 117.898353 28.314058 -133.141742
v 302.690803 28.314058 -133.141742
v 302.690803 28.314058 -180.539840
# 50 texture coords
vt 0.920405 0.715888
vt 0.686141 0.715970
vt 0.686008 0.341366
vt 0.920274 0.341284
vt 0.934287 0.715883
vt 0.934162 0.341280
vt 0.633543 0.715989
vt 0.633408 0.341385
vt 0.990073 0.341261
vt 0.990196 0.715865
vt 0.623647 0.715992
vt 0.623509 0.341388
vt 0.499934 0.341433
vt 0.500074 0.716037
vt 0.490037 0.341437
vt 0.490179 0.716040
vt 0.437437 0.341456
vt 0.437580 0.716060
vt 0.203173 0.341546
vt 0.203317 0.716150
vt 0.189289 0.341551
vt 0.189432 0.716155
vt 0.133379 0.341572
vt 0.133520 0.716176
vt 0.009944 0.716223
vt 0.009804 0.341619
vt 0.379710 0.018535
vt 0.435621 0.018535
vt 0.435621 0.142111
vt 0.379710 0.142111
vt 0.377752 0.032281
vt 0.377752 0.128365
vt 0.146715 0.071045
vt 0.146715 0.089602
vt 0.143624 0.018535
vt 0.143624 0.142111
vt 0.133726 0.142111
vt 0.133726 0.018535
vt 0.634363 0.023550
vt 0.865400 0.062314
vt 0.865400 0.080870
vt 0.634364 0.119633
vt 0.632404 0.009804
vt 0.632408 0.133379
vt 0.868490 0.009804
vt 0.868490 0.133380
vt 0.576497 0.133381
vt 0.576492 0.009805
vt 0.878388 0.009804
vt 0.878388 0.133380
vn 1.000000 0.000000 0.000000
vn 1.000000 0.000000 0.000000
vn 1.000000 0.000000 0.000000
vn 1.000000 0.000000 0.000000
vn 0.000000 1.000000 0.000000
vn 0.000000 1.000000 0.000000
vn 0.000000 1.000000 0.000000
vn 0.000000 1.000000 0.000000
vn -1.000000 0.000000 -0.000000
vn -1.000000 0.000000 -0.000000
vn -1.000000 0.000000 -0.000000
vn -1.000000 0.000000 -0.000000
vn 0.000000 -1.000000 0.000000
vn 0.000000 -1.000000 0.000000
vn 0.000000 -1.000000 0.000000
vn 0.000000 -1.000000 0.000000
vn -0.000000 -0.970747 -0.240106
vn -0.000000 -0.970747 -0.240106
vn -0.000000 0.000000 -1.000000
vn -0.000000 0.000000 -1.000000
vn -0.000000 -0.970747 0.240106
vn -0.000000 -0.970747 0.240106
vn -0.000000 0.000000 1.000000
vn -0.000000 0.000000 1.000000
vn -1.000000 0.000000 -0.000000
vn -1.000000 0.000000 -0.000000
vn -0.000000 -0.058612 0.998281
vn -0.000000 -0.058612 0.998281
vn 1.000000 0.000000 0.000000
vn 1.000000 0.000000 0.000000
vn 0.000000 -0.058612 -0.998281
vn 0.000000 -0.058612 -0.998281
vn -1.000000 0.000000 -0.000000
vn -1.000000 0.000000 -0.000000
vn -0.000000 0.219856 0.975532
vn -0.000000 0.219856 0.975532
vn 1.000000 0.000000 0.000000
vn 1.000000 0.000000 0.000000
vn 0.000000 0.219856 -0.975532
vn 0.000000 0.219856 -0.975532
vn -1.000000 0.000000 -0.000000
vn -1.000000 0.000000 -0.000000
vn -1.000000 0.000000 -0.000000
vn -1.000000 0.000000 -0.000000
vn -0.000000 0.000000 1.000000
vn -0.000000 0.000000 1.000000
vn -0.000000 0.231109 0.972928
vn -0.000000 0.231109 0.972928
vn 1.000000 0.000000 0.000000
vn 1.000000 0.000000 0.000000
vn 1.000000 0.000000 0.000000
vn 1.000000 0.000000 0.000000
vn 0.000000 0.000000 -1.000000
vn 0.000000 0.000000 -1.000000
vn 0.000000 0.231109 -0.972928
vn 0.000000 0.231109 -0.972928
s 1
g Rack_S
usemtl lambert2SG
f 11/46/1 12/45/2 4/49/3 3/50/4
s off
f 3/13/5 4/12/6 6/11/7 5/14/8
s 2
f 5/37/9 6/38/10 9/35/11 10/36/12
s off
f 7/24/13 8/25/14 2/26/15 1/23/16
s 3
f 12/8/17 9/7/18 6/11/19 4/12/20
s 4
f 10/16/21 11/15/22 3/13/23 5/14/24
s 2
f 10/36/12 9/35/11 13/33/25 14/34/26
s 4
f 14/18/27 15/17/28 11/15/22 10/16/21
s 1
f 15/41/29 16/40/30 12/45/2 11/46/1
s 3
f 16/3/31 13/2/32 9/7/18 12/8/17
s 2
f 14/34/26 13/33/25 21/31/33 22/32/34
s 4
f 22/20/35 23/19/36 15/17/28 14/18/27
s 1
f 23/42/37 24/39/38 16/40/30 15/41/29
s 3
f 24/4/39 21/1/40 13/2/32 16/3/31
s 2
f 18/30/41 17/27/42 8/28/43 7/29/44
s 4
f 7/24/45 1/23/46 19/21/47 18/22/48
s 1
f 1/47/49 2/48/50 20/43/51 19/44/52
s 3
f 2/9/53 8/10/54 17/5/55 20/6/56
s 2
f 22/32/34 21/31/33 17/27/42 18/30/41
s 4
f 18/22/48 19/21/47 23/19/36 22/20/35
s 1
f 19/44/52 20/43/51 24/39/38 23/42/37
s 3
f 20/6/56 17/5/55 21/1/40 24/4/39
