# This file uses feet as units for non-parametric coordinates.
# UVs by headus UVLayout v2.08.06 2015/02/12 09:26:29

mtllib Store_Shelf_L_1.mtl
g default
v 120.348783 -0.232558 301.313060
v 181.308782 -0.232558 301.313060
v 120.348783 148.691011 301.313060
v 181.308782 148.691011 301.313060
v 120.348783 148.691011 -3.486928
v 181.308782 148.691011 -3.486928
v 120.348783 -0.232558 -3.486928
v 181.308782 -0.232558 -3.486928
v 181.308780 143.808092 -3.486928
v 120.348784 143.808092 -3.486928
v 120.348783 143.808092 301.313060
v 181.308782 143.808092 301.313060
v 155.405694 142.284090 -3.486928
v 146.251870 142.284090 -3.486928
v 146.251870 142.284090 301.313060
v 155.405694 142.284090 301.313060
v 181.308782 27.348436 -3.486928
v 120.348783 27.348436 -3.486928
v 120.348783 27.348436 301.313060
v 181.308782 27.348436 301.313060
v 174.527831 28.314058 -3.486928
v 127.129733 28.314058 -3.486928
v 127.129733 28.314058 301.313060
v 174.527831 28.314058 301.313060
# 50 texture coords
vt 0.203194 0.310297
vt 0.437450 0.310263
vt 0.437556 0.928139
vt 0.203288 0.928172
vt 0.189310 0.310299
vt 0.189405 0.928174
vt 0.490037 0.310254
vt 0.490165 0.928130
vt 0.133389 0.310307
vt 0.133505 0.928182
vt 0.499927 0.310254
vt 0.500068 0.928129
vt 0.009803 0.310334
vt 0.009941 0.928209
vt 0.623644 0.928101
vt 0.623497 0.310225
vt 0.633542 0.928100
vt 0.633392 0.310225
vt 0.686140 0.928088
vt 0.685991 0.310212
vt 0.920410 0.928033
vt 0.920246 0.310158
vt 0.934295 0.928029
vt 0.934130 0.310154
vt 0.990049 0.310141
vt 0.990197 0.928016
vt 0.189011 0.027231
vt 0.481894 0.076369
vt 0.481894 0.099893
vt 0.189016 0.149034
vt 0.186527 0.009805
vt 0.186535 0.166459
vt 0.485810 0.009803
vt 0.485811 0.166458
vt 0.115658 0.166462
vt 0.115651 0.009808
vt 0.498358 0.009803
vt 0.498359 0.166458
vt 0.471439 0.184314
vt 0.770997 0.136738
vt 0.769911 0.261136
vt 0.471229 0.208339
vt 0.468031 0.116294
vt 0.466635 0.276286
vt 0.773686 0.118964
vt 0.772292 0.278954
vt 0.453817 0.276174
vt 0.455216 0.116183
vt 0.846074 0.119596
vt 0.844678 0.279587
vn 0.000000 0.000000 1.000000
vn 0.000000 0.000000 1.000000
vn 0.000000 0.000000 1.000000
vn 0.000000 0.000000 1.000000
vn 0.000000 1.000000 0.000000
vn 0.000000 1.000000 0.000000
vn 0.000000 1.000000 0.000000
vn 0.000000 1.000000 0.000000
vn 0.000000 0.000000 -1.000000
vn 0.000000 0.000000 -1.000000
vn 0.000000 0.000000 -1.000000
vn 0.000000 0.000000 -1.000000
vn 0.000000 -1.000000 0.000000
vn 0.000000 -1.000000 0.000000
vn 0.000000 -1.000000 0.000000
vn 0.000000 -1.000000 0.000000
vn 0.240106 -0.970747 -0.000000
vn 0.240106 -0.970747 -0.000000
vn 1.000000 0.000000 -0.000000
vn 1.000000 0.000000 -0.000000
vn -0.240106 -0.970747 -0.000000
vn -0.240106 -0.970747 -0.000000
vn -1.000000 0.000000 -0.000000
vn -1.000000 0.000000 -0.000000
vn 0.000000 0.000000 -1.000000
vn 0.000000 0.000000 -1.000000
vn -0.998281 -0.058612 0.000000
vn -0.998281 -0.058612 0.000000
vn 0.000000 0.000000 1.000000
vn 0.000000 0.000000 1.000000
vn 0.998281 -0.058612 0.000000
vn 0.998281 -0.058612 0.000000
vn 0.000000 0.000000 -1.000000
vn 0.000000 0.000000 -1.000000
vn -0.975532 0.219856 0.000000
vn -0.975532 0.219856 0.000000
vn 0.000000 0.000000 1.000000
vn 0.000000 0.000000 1.000000
vn 0.975532 0.219856 0.000000
vn 0.975532 0.219856 0.000000
vn 0.000000 0.000000 -1.000000
vn 0.000000 0.000000 -1.000000
vn 0.000000 0.000000 -1.000000
vn 0.000000 0.000000 -1.000000
vn -1.000000 0.000000 0.000000
vn -1.000000 0.000000 0.000000
vn -0.972928 0.231109 0.000000
vn -0.972928 0.231109 0.000000
vn 0.000000 0.000000 1.000000
vn 0.000000 0.000000 1.000000
vn 0.000000 0.000000 1.000000
vn 0.000000 0.000000 1.000000
vn 1.000000 0.000000 0.000000
vn 1.000000 0.000000 0.000000
vn 0.972928 0.231109 0.000000
vn 0.972928 0.231109 0.000000
s 1
g Rack_L
usemtl lambert2SG
f 11/34/1 12/33/2 4/37/3 3/38/4
s off
f 3/15/5 4/12/6 6/11/7 5/16/8
s 2
f 5/47/9 6/48/10 9/43/11 10/44/12
s off
f 7/13/13 8/9/14 2/10/15 1/14/16
s 3
f 12/8/17 9/7/18 6/11/19 4/12/20
s 4
f 10/18/21 11/17/22 3/15/23 5/16/24
s 2
f 10/44/12 9/43/11 13/39/25 14/42/26
s 4
f 14/20/27 15/19/28 11/17/22 10/18/21
s 1
f 15/29/29 16/28/30 12/33/2 11/34/1
s 3
f 16/3/31 13/2/32 9/7/18 12/8/17
s 2
f 14/42/26 13/39/25 21/40/33 22/41/34
s 4
f 22/22/35 23/21/36 15/19/28 14/20/27
s 1
f 23/30/37 24/27/38 16/28/30 15/29/29
s 3
f 24/4/39 21/1/40 13/2/32 16/3/31
s 2
f 18/46/41 17/45/42 8/49/43 7/50/44
s 4
f 7/25/45 1/26/46 19/23/47 18/24/48
s 1
f 1/35/49 2/36/50 20/31/51 19/32/52
s 3
f 2/10/53 8/9/54 17/5/55 20/6/56
s 2
f 22/41/34 21/40/33 17/45/42 18/46/41
s 4
f 18/24/48 19/23/47 23/21/36 22/22/35
s 1
f 19/32/52 20/31/51 24/27/38 23/30/37
s 3
f 20/6/56 17/5/55 21/1/40 24/4/39
