# This file uses feet as units for non-parametric coordinates.
# UVs by headus UVLayout v2.08.06 2015/02/12 09:26:29

mtllib Store_Shelf_L_1.mtl
g default
v 90.665798 -0.113159 -514.457126
v 385.976376 -0.113159 -514.457126
v 90.665798 239.682754 -514.457126
v 385.976376 239.682754 -514.457126
v 90.665798 239.682754 -538.250520
v 385.976376 239.682754 -538.250520
v 90.665798 -0.113159 -538.250520
v 385.976376 -0.113159 -538.250520
v 90.665798 205.967247 -530.946491
v 90.665798 205.967247 -539.075611
v 385.976376 205.967247 -539.075611
v 385.976376 205.967247 -530.946491
v 90.665798 202.937340 -514.457126
v 90.665798 202.937340 -538.250520
v 385.976376 202.937340 -538.250520
v 385.976376 202.937340 -514.457126
v 90.665798 139.177372 -527.828018
v 90.665798 139.177372 -539.774909
v 385.976376 139.177372 -539.774909
v 385.976376 139.177372 -527.828018
v 90.665798 135.622678 -514.457125
v 90.665798 135.622678 -538.250521
v 385.976376 135.622678 -538.250521
v 385.976376 135.622678 -514.457125
v 90.665798 72.469143 -529.835980
v 90.665798 72.469143 -541.555644
v 385.976376 72.469143 -541.555644
v 385.976376 72.469143 -529.835980
v 90.665798 66.472519 -514.457125
v 90.665798 66.472519 -538.250521
v 385.976376 66.472519 -538.250521
v 385.976376 66.472519 -514.457125
v 90.665798 12.908058 -526.682088
v 90.665798 12.908058 -540.799562
v 385.976376 12.908058 -540.799562
v 385.976376 12.908058 -526.682088
v 90.665798 6.755379 -514.457126
v 90.665798 6.755379 -538.250520
v 385.976376 6.755379 -538.250520
v 385.976376 6.755379 -514.457126
# 82 texture coords
vt 0.007263 0.121344
vt 0.007281 0.030150
vt 0.509451 0.030264
vt 0.509433 0.121447
vt 0.007261 0.132990
vt 0.509431 0.133086
vt 0.007284 0.018829
vt 0.509454 0.018935
vt 0.007244 0.240543
vt 0.509414 0.240608
vt 0.007286 0.007161
vt 0.509456 0.007244
vt 0.007244 0.247117
vt 0.509414 0.247184
vt 0.007226 0.355556
vt 0.509396 0.355648
vt 0.007226 0.360896
vt 0.509395 0.360982
vt 0.007218 0.418249
vt 0.509388 0.418321
vt 0.007213 0.458709
vt 0.509383 0.458775
vt 0.007206 0.522531
vt 0.509376 0.522590
vt 0.007204 0.551043
vt 0.509374 0.551091
vt 0.007195 0.661828
vt 0.509364 0.661863
vt 0.007194 0.685355
vt 0.509364 0.685385
vt 0.007187 0.795873
vt 0.509356 0.795923
vt 0.007183 0.823933
vt 0.509352 0.823998
vt 0.007171 0.917360
vt 0.509340 0.917425
vt 0.007167 0.940632
vt 0.509337 0.940698
vt 0.007166 0.952311
vt 0.509336 0.952379
vt 0.509330 0.992839
vt 0.007161 0.992772
vt 0.722388 0.166388
vt 0.715113 0.273645
vt 0.674657 0.273052
vt 0.702462 0.166039
vt 0.716971 0.156117
vt 0.676519 0.155291
vt 0.717621 0.279693
vt 0.697307 0.279445
vt 0.723231 0.065158
vt 0.699230 0.064649
vt 0.713893 0.388061
vt 0.673435 0.387645
vt 0.719120 0.054609
vt 0.678669 0.053742
vt 0.715243 0.393213
vt 0.701420 0.393093
vt 0.678921 0.042062
vt 0.719372 0.042934
vt 0.713420 0.450524
vt 0.672960 0.450228
vt 0.692216 0.847940
vt 0.670439 0.741503
vt 0.710166 0.743004
vt 0.711787 0.848622
vt 0.666204 0.857145
vt 0.705940 0.858422
vt 0.692993 0.736396
vt 0.712939 0.737199
vt 0.683809 0.947258
vt 0.707385 0.947998
vt 0.675150 0.628993
vt 0.714870 0.630672
vt 0.663070 0.956899
vt 0.702807 0.958138
vt 0.702892 0.625091
vt 0.716463 0.625686
vt 0.702450 0.969608
vt 0.662713 0.968371
vt 0.677907 0.567563
vt 0.717623 0.569355
vn 0.000000 0.000000 1.000000
vn 0.000000 0.000000 1.000000
vn 0.000000 0.684464 0.729046
vn 0.000000 0.684464 0.729046
vn 0.000000 1.000000 0.000000
vn 0.000000 1.000000 0.000000
vn 0.000000 1.000000 0.000000
vn 0.000000 1.000000 0.000000
vn 0.000000 -0.192114 -0.981373
vn 0.000000 -0.192114 -0.981373
vn 0.000000 0.000000 -1.000000
vn 0.000000 0.000000 -1.000000
vn 0.000000 -1.000000 0.000000
vn 0.000000 -1.000000 0.000000
vn 0.000000 -1.000000 0.000000
vn 0.000000 -1.000000 0.000000
vn 1.000000 0.000000 0.000000
vn 1.000000 0.000000 0.000000
vn 1.000000 -0.000000 0.000000
vn 1.000000 -0.000000 0.000000
vn -1.000000 0.000000 0.000000
vn -1.000000 0.000000 0.000000
vn -1.000000 -0.000000 0.000000
vn -1.000000 -0.000000 0.000000
vn -1.000000 -0.000000 0.000000
vn -1.000000 -0.000000 0.000000
vn -1.000000 -0.000000 0.000000
vn -1.000000 -0.000000 0.000000
vn 0.000000 0.024465 -0.999701
vn 0.000000 0.024465 -0.999701
vn 0.000000 -0.000000 -1.000000
vn 0.000000 -0.000000 -1.000000
vn 1.000000 -0.000001 0.000000
vn 1.000000 -0.000000 0.000000
vn 1.000000 0.000000 0.000000
vn 1.000000 0.000000 0.000000
vn 0.000000 0.000000 1.000000
vn 0.000000 0.000000 1.000000
vn 0.000000 -0.439344 0.898319
vn 0.000000 -0.439344 0.898319
vn -1.000000 -0.000000 0.000000
vn -1.000000 -0.000000 0.000000
vn 0.000000 0.010470 -0.999945
vn 0.000000 0.010470 -0.999945
vn 1.000000 -0.000000 0.000000
vn 1.000000 -0.000000 0.000000
vn 0.000000 0.046640 0.998912
vn 0.000000 0.046640 0.998912
vn -1.000000 -0.000000 0.000000
vn -1.000000 -0.000000 0.000000
vn 0.000000 0.000000 -1.000000
vn 0.000000 0.000000 -1.000000
vn 1.000000 0.000000 0.000000
vn 1.000000 0.000000 0.000000
vn 0.000000 0.000000 1.000000
vn 0.000000 0.000000 1.000000
vn -1.000000 0.000000 0.000000
vn -1.000000 0.000000 0.000000
vn 0.000000 0.026685 -0.999644
vn 0.000000 0.026685 -0.999644
vn 1.000000 0.000000 0.000000
vn 1.000000 0.000000 0.000000
vn 0.000000 -0.030087 0.999547
vn 0.000000 -0.030087 0.999547
vn -1.000000 0.000000 0.000000
vn -1.000000 0.000000 0.000000
vn 0.000000 0.000000 -1.000000
vn 0.000000 0.000000 -1.000000
vn 1.000000 -0.000000 0.000000
vn 1.000000 0.000000 0.000000
vn 0.000000 0.000000 1.000000
vn 0.000000 0.000000 1.000000
vn -1.000000 -0.000000 0.000000
vn -1.000000 -0.000000 0.000000
vn 0.000000 -0.012693 -0.999919
vn 0.000000 -0.012693 -0.999919
vn 1.000000 -0.000000 0.000000
vn 1.000000 -0.000000 0.000000
vn 0.000000 0.052878 0.998601
vn 0.000000 0.052878 0.998601
vn -1.000000 0.000000 0.000000
vn -1.000000 -0.000000 0.000000
vn 0.000000 -0.000000 -1.000000
vn 0.000000 -0.000000 -1.000000
vn 1.000000 -0.000000 0.000000
vn 1.000000 -0.000000 0.000000
vn 0.000000 -0.000000 1.000000
vn 0.000000 -0.000000 1.000000
s 1
g Shelf_L1
usemtl lambert2SG
f 1/40/1 2/39/2 40/37/3 37/38/4
s off
f 3/22/5 4/21/6 6/19/7 5/20/8
s 2
f 38/8/9 39/7/10 8/11/11 7/12/12
s off
f 7/41/13 8/42/14 2/39/15 1/40/16
s 3
f 2/59/17 8/60/18 39/55/19 40/56/20
s 4
f 7/79/21 1/80/22 37/75/23 38/76/24
f 10/78/25 9/77/26 3/81/27 5/82/28
s 2
f 5/20/29 6/19/30 11/17/31 10/18/32
s 3
f 12/58/33 11/57/34 6/61/35 4/62/36
s 1
f 9/24/37 12/23/38 4/21/39 3/22/40
s 4
f 14/74/41 13/73/42 9/77/26 10/78/25
s 2
f 10/18/32 11/17/31 15/15/43 14/16/44
s 3
f 16/54/45 15/53/46 11/57/34 12/58/33
s 1
f 13/26/47 16/25/48 12/23/38 9/24/37
s 4
f 18/70/49 17/69/50 13/73/42 14/74/41
s 2
f 14/16/44 15/15/43 19/13/51 18/14/52
s 3
f 20/50/53 19/49/54 15/53/46 16/54/45
s 1
f 17/28/55 20/27/56 16/25/48 13/26/47
s 4
f 22/65/57 21/64/58 17/69/50 18/70/49
s 2
f 18/14/52 19/13/51 23/9/59 22/10/60
s 3
f 24/45/61 23/44/62 19/49/54 20/50/53
s 1
f 21/30/63 24/29/64 20/27/56 17/28/55
s 4
f 26/66/65 25/63/66 21/64/58 22/65/57
s 2
f 22/10/60 23/9/59 27/5/67 26/6/68
s 3
f 28/46/69 27/43/70 23/44/62 24/45/61
s 1
f 25/32/71 28/31/72 24/29/64 21/30/63
s 4
f 30/68/73 29/67/74 25/63/66 26/66/65
s 2
f 26/6/68 27/5/67 31/1/75 30/4/76
s 3
f 32/48/77 31/47/78 27/43/70 28/46/69
s 1
f 29/34/79 32/33/80 28/31/72 25/32/71
s 4
f 34/72/81 33/71/82 29/67/74 30/68/73
s 2
f 30/4/76 31/1/75 35/2/83 34/3/84
s 3
f 36/52/85 35/51/86 31/47/78 32/48/77
s 1
f 33/36/87 36/35/88 32/33/80 29/34/79
s 4
f 38/76/24 37/75/23 33/71/82 34/72/81
s 2
f 34/3/84 35/2/83 39/7/10 38/8/9
s 3
f 40/56/20 39/55/19 35/51/86 36/52/85
s 1
f 37/38/4 40/37/3 36/35/88 33/36/87
